<svg xmlns="http://www.w3.org/2000/svg" width="935.863" height="848" viewBox="0 0 935.863 848">
  <g id="Group_11588" data-name="Group 11588" transform="translate(-929 -9086.211)">
    <g id="Group_11583" data-name="Group 11583">
      <g id="Group_1873" data-name="Group 1873" transform="translate(1115.311 9202.955)">
        <g id="Group_1872" data-name="Group 1872">
          <path id="Union_3" data-name="Union 3" d="M-3089.917-5569.468a15.392,15.392,0,0,1-15.393-15.393v-326.869h543.16v326.869a15.394,15.394,0,0,1-15.394,15.393Zm-15.393-342.261v-12.62a15.393,15.393,0,0,1,15.393-15.395h512.373a15.394,15.394,0,0,1,15.394,15.395v12.62Z" transform="translate(3106.125 5940.558)" fill="#fff" stroke="rgba(0,0,0,0)" stroke-miterlimit="10" stroke-width="1"/>
          <g id="Group_1871" data-name="Group 1871" transform="translate(20.84 8.512)">
            <g id="Group_1868" data-name="Group 1868">
              <circle id="Ellipse_65" data-name="Ellipse 65" cx="5.487" cy="5.487" r="5.487" transform="translate(0.353 1.338) rotate(-5.152)" fill="#fff"/>
              <path id="Path_4331" data-name="Path 4331" d="M627.04,595.927a6.31,6.31,0,1,1,6.309-6.309A6.316,6.316,0,0,1,627.04,595.927Zm0-10.973a4.664,4.664,0,1,0,4.663,4.664A4.669,4.669,0,0,0,627.04,584.954Z" transform="translate(-620.73 -583.308)" fill="#5254cf"/>
            </g>
            <g id="Group_1869" data-name="Group 1869" transform="translate(21.397)">
              <circle id="Ellipse_66" data-name="Ellipse 66" cx="5.487" cy="5.487" r="5.487" transform="translate(0.353 1.338) rotate(-5.152)" fill="#fff"/>
              <path id="Path_4332" data-name="Path 4332" d="M659.54,595.927a6.31,6.31,0,1,1,6.309-6.309A6.316,6.316,0,0,1,659.54,595.927Zm0-10.973a4.664,4.664,0,1,0,4.663,4.664A4.669,4.669,0,0,0,659.54,584.954Z" transform="translate(-653.23 -583.308)" fill="#5254cf"/>
            </g>
            <g id="Group_1870" data-name="Group 1870" transform="translate(42.794)">
              <circle id="Ellipse_67" data-name="Ellipse 67" cx="5.487" cy="5.487" r="5.487" transform="translate(0.353 1.338) rotate(-5.152)" fill="#fff"/>
              <path id="Path_4333" data-name="Path 4333" d="M692.04,595.927a6.31,6.31,0,1,1,6.309-6.309A6.317,6.317,0,0,1,692.04,595.927Zm0-10.973a4.664,4.664,0,1,0,4.663,4.664A4.669,4.669,0,0,0,692.04,584.954Z" transform="translate(-685.73 -583.308)" fill="#5254cf"/>
            </g>
          </g>
        </g>
      </g>
      <g id="Group_1881" data-name="Group 1881" transform="translate(1237.367 9153.938)">
        <path id="Path_4334" data-name="Path 4334" d="M1046.231,1053.207H905.865c-5.185-48.473-6.518-91.926-1.877-120.812a97.568,97.568,0,0,1,5.152-20.163L968.246,900.2l68.718,6.156C1048.519,936.246,1050.329,989.986,1046.231,1053.207Z" transform="translate(-817.743 -634.037)" fill="#ffbf3c"/>
        <rect id="Rectangle_396" data-name="Rectangle 396" width="1.646" height="55.962" transform="translate(154.042 279.611)" fill="#1b1b43"/>
        <path id="Path_4335" data-name="Path 4335" d="M1038.44,906.356S983.1,945.167,905.464,932.395a97.568,97.568,0,0,1,5.152-20.163L969.722,900.2Z" transform="translate(-819.218 -634.037)" fill="#1b1b43" opacity="0.2"/>
        <path id="Path_4336" data-name="Path 4336" d="M949.722,575.129S923.066,609.121,929.484,638l93.644-3.908s.8-56.559-19.655-61.372Z" transform="translate(-827.083 -522.163)" fill="#1b1b43"/>
        <path id="Path_4337" data-name="Path 4337" d="M1072.276,632.041h-1.646c0-37.05-19.27-54.073-19.465-54.241l1.074-1.247C1052.44,576.726,1072.276,594.244,1072.276,632.041Z" transform="translate(-868.993 -523.471)" fill="#1b1b43"/>
        <g id="Group_1876" data-name="Group 1876" transform="translate(0 93.239)">
          <path id="Path_4338" data-name="Path 4338" d="M874.308,840.158a35.087,35.087,0,0,1-21.842,31.372,32.7,32.7,0,0,1-6.979,1.975A92.355,92.355,0,0,1,829.9,874.69c-30.285,0-52.275-23-54.876-30.013-2.6-7.029,4.732-4.526,4.732-4.526,2.675-5.967,8.633-1.161,8.633-1.161,1.794-6.222,7.423-.411,7.423-.411s.2-3.407,3.407-3.21c1.975.132,8.444,4.065,13.118,7.061a14.82,14.82,0,0,0,7.966,2.321,14.347,14.347,0,0,0,3.341-.379,14.8,14.8,0,0,0,11.225-11.735l9.069-49.411H865.4l6.88,8.822C874.983,802.927,874.818,825.213,874.308,840.158Z" transform="translate(-774.466 -687.314)" fill="#ffbc96"/>
          <path id="Path_4340" data-name="Path 4340" d="M950.633,639.445,906.5,648.439a41.571,41.571,0,0,0-32.372,32.132l-12,56.747,40.112,5.615Z" transform="translate(-804.411 -638.196)" fill="#a393e3"/>
          <path id="Path_4341" data-name="Path 4341" d="M1019.917,639.445l44.138,8.994a41.573,41.573,0,0,1,32.372,32.132l5.453,40.3-38.909,6.82Z" transform="translate(-858.318 -638.196)" fill="#a393e3"/>
          <path id="Path_4342" data-name="Path 4342" d="M919.715,742.934s-2.139,64.715-6.418,80.225c0,0,59.9,20.859,127.824-5.883l-5.349-119.267-52.28-58.563H968.117L915.971,707.1Z" transform="translate(-821.894 -638.196)" fill="#a393e3"/>
          <path id="Path_4343" data-name="Path 4343" d="M1174.264,640.4c.247,4.23-6.715,17.035-12.065,26.2a56.9,56.9,0,0,0-7.374,21.973c-6.9,57.937-11.456,106.41-31.619,119.989-4.674,3.144-10.172,4.428-16.723,3.522a21.307,21.307,0,0,1-11.538-5.283c-21.233-18.9-10.929-79.762-10.929-79.762l26.335-4.543s5.893-49.74,9.629-66.858c3.753-17.1,9.629-8.016,9.629-8.016,2.14-5.349,8.016-2.14,8.016-2.14,4.28-6.946,9.629-1.613,9.629-1.613,3.21-6.4,12.312,4.823,12.312,4.823C1165.442,646.009,1173.737,631.508,1174.264,640.4Z" transform="translate(-879.362 -637.547)" fill="#ffbc96"/>
          <rect id="Rectangle_397" data-name="Rectangle 397" width="54.356" height="1.646" transform="translate(96.998 104.699) rotate(-87.267)" fill="#1b1b43"/>
          <path id="Path_4344" data-name="Path 4344" d="M1082.428,752.442l-3.361-43.245,1.641-.127,3.22,41.442,25.45-4.392.281,1.622Z" transform="translate(-878.525 -661.981)" fill="#1b1b43"/>
          <rect id="Rectangle_398" data-name="Rectangle 398" width="91.872" height="1.646" transform="translate(224.418 129.891) rotate(-82.457)" fill="#d28572"/>
          <g id="Group_1874" data-name="Group 1874" transform="translate(249.434 5.273)">
            <rect id="Rectangle_399" data-name="Rectangle 399" width="1.646" height="9.968" transform="matrix(0.988, -0.153, 0.153, 0.988, 0, 4.928)" fill="#d28572"/>
            <rect id="Rectangle_400" data-name="Rectangle 400" width="1.646" height="10.152" transform="translate(8.261 3.002) rotate(-18.185)" fill="#d28572"/>
            <rect id="Rectangle_401" data-name="Rectangle 401" width="1.646" height="10.675" transform="matrix(0.942, -0.335, 0.335, 0.942, 17.732, 0.552)" fill="#d28572"/>
          </g>
          <rect id="Rectangle_402" data-name="Rectangle 402" width="19.134" height="5.967" rx="1.505" transform="translate(169.884 43.792)" fill="#cbcbff"/>
          <path id="Path_4346" data-name="Path 4346" d="M996.216,680.6a31.368,31.368,0,0,1-19.24-7l1.1-1.222c.676.608,16.758,14.712,36.261-.045l.992,1.312C1008.443,678.862,1001.891,680.6,996.216,680.6Z" transform="translate(-843.648 -649.432)" fill="#1b1b43"/>
          <g id="Group_1875" data-name="Group 1875" transform="translate(3.98 150.437)">
            <path id="Path_4347" data-name="Path 4347" d="M816.332,875.588c-3.5-1.363-7.313-4.285-11.015-8.45l1.23-1.094c3.53,3.972,7.12,6.741,10.382,8.01Z" transform="translate(-788.985 -866.044)" fill="#d28572"/>
            <path id="Path_4348" data-name="Path 4348" d="M803.035,878.276c-3.366-2.126-6.352-5.588-9.127-10.583l1.439-.8c2.637,4.748,5.44,8.016,8.567,9.991Z" transform="translate(-785.088 -866.334)" fill="#d28572"/>
            <path id="Path_4349" data-name="Path 4349" d="M791.823,881.73a47.435,47.435,0,0,1-11.312-12.766l1.386-.889a45.848,45.848,0,0,0,10.909,12.335Z" transform="translate(-780.511 -866.738)" fill="#d28572"/>
          </g>
        </g>
        <g id="Group_1880" data-name="Group 1880" transform="translate(114.283)">
          <path id="Rectangle_403" data-name="Rectangle 403" d="M0,0H33.427a0,0,0,0,1,0,0V28.212A16.713,16.713,0,0,1,16.713,44.926h0A16.713,16.713,0,0,1,0,28.212V0A0,0,0,0,1,0,0Z" transform="translate(21.521 68.816)" fill="#ffbc96"/>
          <path id="Path_4350" data-name="Path 4350" d="M980.73,604.792c10.334,17.366,21.424,18.792,33.468.137Z" transform="translate(-959.214 -533.118)" fill="#d28572"/>
          <path id="Rectangle_404" data-name="Rectangle 404" d="M0,0H46.372a0,0,0,0,1,0,0V39.112A23.186,23.186,0,0,1,23.186,62.3h0A23.186,23.186,0,0,1,0,39.112V0A0,0,0,0,1,0,0Z" transform="translate(15.048 16.546)" fill="#ffbc96"/>
          <path id="Path_4351" data-name="Path 4351" d="M1003.745,574.381c-2.711-2.56-3.73-4.584-3.117-6.186.589-1.539,2.473-2.028,3.586-2.183l-.058-5.056,1.646-.018.076,6.628-.811.02c-.805.023-2.576.347-2.9,1.2-.155.407-.2,1.649,2.711,4.4Z" transform="translate(-965.953 -518.137)" fill="#1b1b43"/>
          <g id="Group_1877" data-name="Group 1877" transform="translate(30.469 58.387)">
            <path id="Path_4352" data-name="Path 4352" d="M1010.332,587.515a15.992,15.992,0,0,0,1.512-2.9c-5.616.468-17.515.468-17.515.468a10.931,10.931,0,0,0,1.333,2.932A89.916,89.916,0,0,0,1010.332,587.515Z" transform="translate(-994.329 -584.611)" fill="#fff"/>
            <path id="Path_4353" data-name="Path 4353" d="M996.353,589.518a8.55,8.55,0,0,0,7.157,4.155c3.628.117,6.087-2.472,7.513-4.651A89.937,89.937,0,0,1,996.353,589.518Z" transform="translate(-995.021 -586.118)" fill="#1b1b43"/>
          </g>
          <path id="Path_4354" data-name="Path 4354" d="M1012.206,537.083c.021.891.823-18.517-29.422-22.632,0,0-17.076,9.772-15.122,23.866l-9.275-1.752c-3.584-9.77-2.35-35.9,18.636-34.047,0,0,4.524-6.463,11.933-6.584,37.651-.618,31.7,41.132,30.8,42.336Z" transform="translate(-951.049 -495.928)" fill="#1b1b43"/>
          <g id="Group_1878" data-name="Group 1878" transform="translate(53.761 35.083)">
            <ellipse id="Ellipse_68" data-name="Ellipse 68" cx="10.245" cy="8.496" rx="10.245" ry="8.496" transform="translate(0 19.459) rotate(-71.747)" fill="#ffbc96"/>
            <path id="Path_4355" data-name="Path 4355" d="M1044.173,568.809l-1.633-.2c.284-2.269,1.913-6.626,6.049-6.87l.1,1.643C1044.868,563.6,1044.179,568.757,1044.173,568.809Z" transform="translate(-1034.09 -553.492)" fill="#1b1b43"/>
          </g>
          <g id="Group_1879" data-name="Group 1879" transform="translate(0 35.083)">
            <ellipse id="Ellipse_69" data-name="Ellipse 69" cx="8.496" cy="10.245" rx="8.496" ry="10.245" transform="matrix(0.95, -0.313, 0.313, 0.95, 0, 5.322)" fill="#ffbc96"/>
            <path id="Path_4356" data-name="Path 4356" d="M964.65,568.81c-.028-.213-.712-5.209-4.513-5.432l.1-1.643c4.137.244,5.766,4.6,6.05,6.87Z" transform="translate(-952.179 -553.492)" fill="#1b1b43"/>
          </g>
          <path id="Path_4357" data-name="Path 4357" d="M1021.692,552.227a2.5,2.5,0,1,1-2.5-2.687A2.6,2.6,0,0,1,1021.692,552.227Z" transform="translate(-971.5 -514.242)" fill="#1b1b43"/>
          <rect id="Rectangle_405" data-name="Rectangle 405" width="10.429" height="3.032" rx="1.516" transform="matrix(0.993, 0.119, -0.119, 0.993, 43.498, 28.004)" fill="#1b1b43"/>
          <path id="Path_4358" data-name="Path 4358" d="M987.728,552.227a2.5,2.5,0,1,0,2.5-2.687A2.6,2.6,0,0,0,987.728,552.227Z" transform="translate(-961.605 -514.242)" fill="#1b1b43"/>
          <rect id="Rectangle_406" data-name="Rectangle 406" width="10.429" height="3.032" rx="1.516" transform="translate(33.179 31.014) rotate(173.137)" fill="#1b1b43"/>
          <circle id="Ellipse_70" data-name="Ellipse 70" cx="5.386" cy="5.386" r="5.386" transform="translate(46.974 43.212)" fill="#fe5b52" opacity="0.4"/>
          <circle id="Ellipse_71" data-name="Ellipse 71" cx="5.386" cy="5.386" r="5.386" transform="translate(18.569 43.212)" fill="#fe5b52" opacity="0.4"/>
        </g>
      </g>
    </g>
    <g id="Group_11584" data-name="Group 11584">
      <g id="Group_1924" data-name="Group 1924" transform="translate(1191.936 9285.947) rotate(90)">
        <g id="Group_1888" data-name="Group 1888">
          <rect id="Rectangle_411" data-name="Rectangle 411" width="138.567" height="150.039" rx="15.512" transform="translate(0.791 0.79)" fill="#fff"/>
          <g id="Path_4366" data-name="Path 4366" transform="translate(-1277.238 -769.26)" fill="#fe5b52">
            <path d="M 1406.3828125 921.379638671875 L 1288.241577148438 921.379638671875 C 1281.898559570313 921.379638671875 1276.738037109375 916.219482421875 1276.738037109375 909.8768310546875 L 1276.738037109375 780.2628173828125 C 1276.738037109375 773.920166015625 1281.898559570313 768.760009765625 1288.241577148438 768.760009765625 L 1406.3828125 768.760009765625 C 1412.725341796875 768.760009765625 1417.885375976563 773.920166015625 1417.885375976563 780.2628173828125 L 1417.885375976563 909.8768310546875 C 1417.885375976563 916.219482421875 1412.725341796875 921.379638671875 1406.3828125 921.379638671875 Z M 1288.241577148438 771.3401489257813 C 1283.321533203125 771.3401489257813 1279.31884765625 775.3428344726563 1279.31884765625 780.2628173828125 L 1279.31884765625 909.8768310546875 C 1279.31884765625 914.7967529296875 1283.321533203125 918.7994384765625 1288.241577148438 918.7994384765625 L 1406.3828125 918.7994384765625 C 1411.302734375 918.7994384765625 1415.305419921875 914.7967529296875 1415.305419921875 909.8768310546875 L 1415.305419921875 780.2628173828125 C 1415.305419921875 775.3428344726563 1411.302734375 771.3401489257813 1406.3828125 771.3401489257813 L 1288.241577148438 771.3401489257813 Z" stroke="none"/>
            <path d="M 1406.3828125 920.879638671875 C 1412.44970703125 920.879638671875 1417.385375976563 915.9437866210938 1417.385375976563 909.8768310546875 L 1417.385375976563 780.2628173828125 C 1417.385375976563 774.1958618164063 1412.44970703125 769.260009765625 1406.3828125 769.260009765625 L 1288.241577148438 769.260009765625 C 1282.174682617188 769.260009765625 1277.238037109375 774.1958618164063 1277.238037109375 780.2628173828125 L 1277.238037109375 909.8768310546875 C 1277.238037109375 915.9437866210938 1282.174682617188 920.879638671875 1288.241577148438 920.879638671875 L 1406.3828125 920.879638671875 M 1288.241577148438 770.8401489257813 L 1406.3828125 770.8401489257813 C 1411.578491210938 770.8401489257813 1415.805419921875 775.0669555664063 1415.805419921875 780.2628173828125 L 1415.805419921875 909.8768310546875 C 1415.805419921875 915.0726928710938 1411.578491210938 919.2994384765625 1406.3828125 919.2994384765625 L 1288.241577148438 919.2994384765625 C 1283.045532226563 919.2994384765625 1278.81884765625 915.0726928710938 1278.81884765625 909.8768310546875 L 1278.81884765625 780.2628173828125 C 1278.81884765625 775.0669555664063 1283.045532226563 770.8401489257813 1288.241577148438 770.8401489257813 M 1406.3828125 921.879638671875 L 1288.241577148438 921.879638671875 C 1281.622802734375 921.879638671875 1276.238037109375 916.4951782226563 1276.238037109375 909.8768310546875 L 1276.238037109375 780.2628173828125 C 1276.238037109375 773.6444702148438 1281.622802734375 768.260009765625 1288.241577148438 768.260009765625 L 1406.3828125 768.260009765625 C 1413.001098632813 768.260009765625 1418.385375976563 773.6444702148438 1418.385375976563 780.2628173828125 L 1418.385375976563 909.8768310546875 C 1418.385375976563 916.4951782226563 1413.001098632813 921.879638671875 1406.3828125 921.879638671875 Z M 1288.241577148438 771.8401489257813 C 1283.597290039063 771.8401489257813 1279.81884765625 775.6185302734375 1279.81884765625 780.2628173828125 L 1279.81884765625 909.8768310546875 C 1279.81884765625 914.5210571289063 1283.597290039063 918.2994384765625 1288.241577148438 918.2994384765625 L 1406.3828125 918.2994384765625 C 1411.027099609375 918.2994384765625 1414.805419921875 914.5210571289063 1414.805419921875 909.8768310546875 L 1414.805419921875 780.2628173828125 C 1414.805419921875 775.6185302734375 1411.027099609375 771.8401489257813 1406.3828125 771.8401489257813 L 1288.241577148438 771.8401489257813 Z" stroke="none" fill="#fe5b52"/>
          </g>
        </g>
      </g>
      <g id="Group_1916" data-name="Group 1916" transform="translate(1059.316 9309.947)">
        <path id="Path_4435" data-name="Path 4435" d="M142.01,130.494h-82a6.507,6.507,0,0,1-6.5-6.5V71.8a1.432,1.432,0,1,1,2.863,0V124a3.633,3.633,0,0,0,3.633,3.633h82A3.638,3.638,0,0,0,145.648,124V66.842A3.643,3.643,0,0,0,142.01,63.2H88.084a1.429,1.429,0,1,1,0-2.857H142.01a6.5,6.5,0,0,1,6.5,6.5V124A6.5,6.5,0,0,1,142.01,130.494Z" transform="translate(-40.116 -38.971)" fill="#fe5b52" stroke="#fe5b52" stroke-width="1"/>
        <path id="Path_4436" data-name="Path 4436" d="M68.251,69.887a1.429,1.429,0,0,1-.26-2.834c4.573-.858,8.791-1.822,13.288-3.047a1.432,1.432,0,1,1,.751,2.763c-4.573,1.242-8.868,2.224-13.512,3.094A1.35,1.35,0,0,1,68.251,69.887Z" transform="translate(25.307 -21.214)" fill="#fe5b52" stroke="#fe5b52" stroke-width="1"/>
        <path id="Path_4437" data-name="Path 4437" d="M78.093,68.661a176.566,176.566,0,0,1-18.636-.982,1.428,1.428,0,1,1,.3-2.84,175.036,175.036,0,0,0,36.668,0,1.428,1.428,0,1,1,.3,2.84A176.484,176.484,0,0,1,78.093,68.661Z" transform="translate(-17.199 -16.919)" fill="#fe5b52" stroke="#fe5b52" stroke-width="1"/>
        <path id="Path_4438" data-name="Path 4438" d="M68.351,69.9c-4.8-.881-9.342-1.923-13.779-3.13a1.431,1.431,0,0,1,.745-2.763c4.366,1.189,8.839,2.219,13.294,3.059a1.429,1.429,0,0,1-.26,2.834Z" transform="translate(-40.114 -21.214)" fill="#fe5b52" stroke="#fe5b52" stroke-width="1"/>
        <path id="Path_4439" data-name="Path 4439" d="M68.251,68.819a1.432,1.432,0,0,1-.26-2.84c4.579-.858,8.8-1.822,13.288-3.041a1.429,1.429,0,1,1,.751,2.757c-4.561,1.242-8.856,2.224-13.512,3.1A2.021,2.021,0,0,1,68.251,68.819Z" transform="translate(25.307 -26.477)" fill="#fe5b52" stroke="#fe5b52" stroke-width="1"/>
        <path id="Path_4440" data-name="Path 4440" d="M77.938,67.6a174.829,174.829,0,0,1-18.447-.982,1.431,1.431,0,1,1,.3-2.846,169.9,169.9,0,0,0,36.29,0,1.431,1.431,0,1,1,.3,2.846A174.828,174.828,0,0,1,77.938,67.6Z" transform="translate(-17.031 -22.183)" fill="#fe5b52" stroke="#fe5b52" stroke-width="1"/>
        <path id="Path_4441" data-name="Path 4441" d="M68.351,68.83c-4.8-.881-9.342-1.929-13.779-3.136a1.428,1.428,0,0,1,.745-2.757c4.366,1.183,8.839,2.213,13.294,3.059a1.429,1.429,0,0,1-.26,2.834Z" transform="translate(-40.114 -26.477)" fill="#fe5b52" stroke="#fe5b52" stroke-width="1"/>
        <path id="Path_4442" data-name="Path 4442" d="M64.331,85.185a8.562,8.562,0,0,1-8.549-8.555V63.7a1.429,1.429,0,1,1,2.857,0V76.63a5.694,5.694,0,0,0,11.389,0l.13-4.165a1.4,1.4,0,0,1,1.479-1.384,1.425,1.425,0,0,1,1.378,1.479l-.13,4.118A8.553,8.553,0,0,1,64.331,85.185Z" transform="translate(-28.976 -29.503)" fill="#fe5b52" stroke="#fe5b52" stroke-width="1"/>
        <path id="Path_4443" data-name="Path 4443" d="M72.97,85.185a8.567,8.567,0,0,1-8.555-8.555V63.7a1.433,1.433,0,0,1,1.432-1.432H80.093A1.429,1.429,0,0,1,81.524,63.7V76.63A8.567,8.567,0,0,1,72.97,85.185Zm-5.691-20.05v11.5a5.694,5.694,0,0,0,11.389,0v-11.5Z" transform="translate(13.465 -29.503)" fill="#fe5b52" stroke="#fe5b52" stroke-width="1"/>
        <path id="Path_4444" data-name="Path 4444" d="M62.049,65.135H56.76a1.432,1.432,0,0,1,0-2.863h5.289a1.432,1.432,0,0,1,0,2.863Z" transform="translate(-31.178 -29.503)" fill="#fe5b52" stroke="#fe5b52" stroke-width="1"/>
        <path id="Path_4445" data-name="Path 4445" d="M84.946,65.135H65.4a1.432,1.432,0,1,1,0-2.863H84.946a1.432,1.432,0,0,1,0,2.863Z" transform="translate(11.263 -29.503)" fill="#fe5b52" stroke="#fe5b52" stroke-width="1"/>
        <path id="Path_4446" data-name="Path 4446" d="M147.08,73.055H54.948a1.432,1.432,0,0,1,0-2.863H147.08a1.432,1.432,0,0,1,0,2.863Z" transform="translate(-40.116 9.433)" fill="#fe5b52" stroke="#fe5b52" stroke-width="1"/>
        <path id="Path_4447" data-name="Path 4447" d="M58.412,71.609a1.428,1.428,0,0,1-1.426-1.432V65.042a1.429,1.429,0,1,1,2.858,0v5.135A1.429,1.429,0,0,1,58.412,71.609Z" transform="translate(-23.057 -22.925)" fill="#fe5b52" stroke="#fe5b52" stroke-width="1"/>
        <path id="Path_4448" data-name="Path 4448" d="M67.042,71.609a1.429,1.429,0,0,1-1.432-1.432V65.042a1.429,1.429,0,1,1,2.857,0v5.135A1.428,1.428,0,0,1,67.042,71.609Z" transform="translate(19.34 -22.925)" fill="#fe5b52" stroke="#fe5b52" stroke-width="1"/>
        <path id="Path_4449" data-name="Path 4449" d="M94.08,71.359H60.258a1.429,1.429,0,0,1,0-2.857H92.649V65.183a3.642,3.642,0,0,0-3.632-3.638H61.766a1.429,1.429,0,0,1,0-2.857h27.25a6.5,6.5,0,0,1,6.49,6.5v4.745A1.428,1.428,0,0,1,94.08,71.359Z" transform="translate(-13.982 -47.127)" fill="#fe5b52" stroke="#fe5b52" stroke-width="1"/>
        <path id="Path_4450" data-name="Path 4450" d="M99.7,76.752h-39a1.429,1.429,0,1,1,0-2.857H98.27V69.15a8.713,8.713,0,0,0-8.7-8.7H60.513a1.429,1.429,0,0,1,0-2.858H89.567a11.573,11.573,0,0,1,11.56,11.56v6.171A1.429,1.429,0,0,1,99.7,76.752Z" transform="translate(-12.728 -52.52)" fill="#fe5b52" stroke="#fe5b52" stroke-width="1"/>
        <path id="Path_4451" data-name="Path 4451" d="M92.889,96.957a1.434,1.434,0,0,1-1.012-.42l-9.158-9.17A3.631,3.631,0,0,0,80.145,86.3h-22.4a6.5,6.5,0,0,1-6.5-6.5V63.229a6.5,6.5,0,0,1,6.5-6.5H87.825a6.507,6.507,0,0,1,6.5,6.5v32.3a1.422,1.422,0,0,1-.887,1.319A1.359,1.359,0,0,1,92.889,96.957ZM57.747,59.6a3.638,3.638,0,0,0-3.638,3.633V79.806a3.638,3.638,0,0,0,3.638,3.633h22.4a6.483,6.483,0,0,1,4.6,1.9l6.715,6.727V63.229A3.633,3.633,0,0,0,87.825,59.6Z" transform="translate(-51.251 -56.733)" fill="#fe5b52" stroke="#fe5b52" stroke-width="1"/>
        <path id="Path_4452" data-name="Path 4452" d="M75.79,61.126H54.261a1.429,1.429,0,1,1,0-2.857H75.79a1.429,1.429,0,1,1,0,2.857Z" transform="translate(-43.493 -49.182)" fill="#fe5b52" stroke="#fe5b52" stroke-width="1"/>
        <path id="Path_4453" data-name="Path 4453" d="M75.79,62.234H54.261a1.429,1.429,0,1,1,0-2.858H75.79a1.429,1.429,0,1,1,0,2.858Z" transform="translate(-43.493 -43.74)" fill="#fe5b52" stroke="#fe5b52" stroke-width="1"/>
        <path id="Path_4454" data-name="Path 4454" d="M155.915,74.582H54.128a1.432,1.432,0,0,1,0-2.863H155.915a1.432,1.432,0,0,1,0,2.863Z" transform="translate(-44.118 16.94)" fill="#fe5b52" stroke="#fe5b52" stroke-width="1"/>
      </g>
    </g>
    <g id="Group_11585" data-name="Group 11585">
      <g id="Group_1865" data-name="Group 1865" transform="translate(1231.135 9774.348)">
        <path id="Rectangle_392" data-name="Rectangle 392" d="M6.786,0H60.908a6.785,6.785,0,0,1,6.785,6.785V17.953a6.786,6.786,0,0,1-6.786,6.786H6.786A6.786,6.786,0,0,1,0,17.953V6.786A6.786,6.786,0,0,1,6.786,0Z" transform="translate(0 34.016)" fill="#fff"/>
        <rect id="Rectangle_393" data-name="Rectangle 393" width="67.694" height="24.738" rx="6.786" transform="translate(76.811 34.016)" fill="#fff"/>
        <path id="Rectangle_394" data-name="Rectangle 394" d="M6.786,0H60.908a6.785,6.785,0,0,1,6.785,6.785V17.953a6.786,6.786,0,0,1-6.786,6.786H6.786A6.786,6.786,0,0,1,0,17.953V6.786A6.786,6.786,0,0,1,6.786,0Z" transform="translate(37.857)" fill="#fff"/>
      </g>
      <g id="Group_1896" data-name="Group 1896" transform="translate(1129.516 9644.641)">
        <rect id="Rectangle_426" data-name="Rectangle 426" width="23.043" height="279.81" transform="translate(129.966 9.541)" fill="#b0b0d2"/>
        <rect id="Rectangle_427" data-name="Rectangle 427" width="23.043" height="279.81" transform="translate(364.512 9.541)" fill="#b0b0d2"/>
        <rect id="Rectangle_428" data-name="Rectangle 428" width="23.043" height="49.321" transform="translate(129.966 8.774)" fill="#1b1b43" opacity="0.3"/>
        <rect id="Rectangle_429" data-name="Rectangle 429" width="23.043" height="49.321" transform="translate(364.512 8.774)" fill="#1b1b43" opacity="0.3"/>
        <rect id="Rectangle_430" data-name="Rectangle 430" width="517.521" height="23.187" fill="#b0b0d2"/>
      </g>
      <g id="Group_1898" data-name="Group 1898" transform="translate(1204.037 9545.857)">
        <rect id="Rectangle_432" data-name="Rectangle 432" width="59.93" height="7.946" transform="translate(59.93 98.809) rotate(180)" fill="#1b1b43"/>
        <path id="Path_4370" data-name="Path 4370" d="M801.4,1190.019h8.866l35.324-93.195a4.146,4.146,0,0,0-3.877-5.615h0a4.145,4.145,0,0,0-3.877,2.677Z" transform="translate(-750.34 -1091.21)" fill="#1b1b43"/>
      </g>
      <g id="Group_1897" data-name="Group 1897" transform="translate(1490.646 9545.857)">
        <rect id="Rectangle_431" data-name="Rectangle 431" width="59.93" height="7.946" transform="translate(35.596 90.863)" fill="#1b1b43"/>
        <path id="Path_4369" data-name="Path 4369" d="M1203.632,1190.019h-8.866l-35.323-93.195a4.145,4.145,0,0,1,3.876-5.615h0a4.145,4.145,0,0,1,3.877,2.677Z" transform="translate(-1159.169 -1091.21)" fill="#1b1b43"/>
      </g>
    </g>
    <g id="Group_11586" data-name="Group 11586">
      <g id="Group_1905" data-name="Group 1905" transform="translate(929 9448.879)">
        <g id="Group_1902" data-name="Group 1902" transform="translate(63.611)">
          <g id="Group_1899" data-name="Group 1899" transform="translate(64.901)">
            <path id="Path_4371" data-name="Path 4371" d="M544.891,1052.359l32.7,5.255.36-17.915.344-17.834.3-15.247-9.067-4.28-15.535,18.2Z" transform="translate(-516.183 -963.871)" fill="#d28572"/>
            <path id="Path_4372" data-name="Path 4372" d="M574.81,1031.714s3.946,8.28,13.357,18.02l.344-17.834Z" transform="translate(-526.404 -973.906)" fill="#925d4f"/>
            <path id="Path_4373" data-name="Path 4373" d="M627.808,998.224c.38.214,10.352,15.484,5.871,16.866a30.727,30.727,0,0,1-10.137.85Z" transform="translate(-543.052 -962.465)" fill="#925d4f"/>
            <path id="Path_4374" data-name="Path 4374" d="M612.794,975.234l-4.125,37.957a8.679,8.679,0,0,1-5.482,7.151h0a8.679,8.679,0,0,1-6.538-.1l-23.494-9.969-3.169-21.4,19.019-19.923Z" transform="translate(-524.756 -952.465)" fill="#d28572"/>
            <path id="Path_4375" data-name="Path 4375" d="M543.331,1046.667l-11.247,24.963,43.617,6.858,3.018-19.477Z" transform="translate(-511.808 -979.014)" fill="#f1f1f1"/>
            <path id="Path_4376" data-name="Path 4376" d="M561.459,980.269s19.284-3.254,27.865-13.59c0,0,3.181-19.988-26.223-22.637-31.9-2.873-61.814,42.264-61.814,42.264l38.971,34.039Z" transform="translate(-501.287 -943.91)" fill="#1b1b43"/>
            <ellipse id="Ellipse_72" data-name="Ellipse 72" cx="6.664" cy="8.688" rx="6.664" ry="8.688" transform="translate(49.026 33.402) rotate(-27.211)" fill="#d28572"/>
            <path id="Path_4377" data-name="Path 4377" d="M590.539,1003.065c-.134-.91-.791-3.487-2.2-4.453a2.227,2.227,0,0,0-1.846-.315l-.362-1.606a3.85,3.85,0,0,1,3.143.567c2.289,1.576,2.869,5.408,2.892,5.57Z" transform="translate(-530.272 -961.903)" fill="#1b1b43"/>
            <circle id="Ellipse_73" data-name="Ellipse 73" cx="6.378" cy="6.378" r="6.378" transform="translate(67.768 39.5)" fill="#be443d" opacity="0.3"/>
          </g>
          <g id="Group_1900" data-name="Group 1900" transform="translate(9.737 83.582)">
            <path id="Path_4378" data-name="Path 4378" d="M550.788,1135.869a32.134,32.134,0,0,1-18.632,21.479c-.56.23-1.119.445-1.7.658-.56.2-1.1.411-1.646.609a62.121,62.121,0,0,0-36.869,39.536c-.313,1.054-.576,2.057-.79,3,0,0-36.622,5.349-73.656-15.225,0,0,20.41-72.405,65.459-106.855a40.234,40.234,0,0,1,36.606-6.3,53.86,53.86,0,0,1,27.273,19.636l.807,1.119,3.983,29.067A33.588,33.588,0,0,1,550.788,1135.869Z" transform="translate(-417.5 -1070.862)" fill="#fe5b52"/>
            <path id="Path_4379" data-name="Path 4379" d="M603.168,1162.622a32.134,32.134,0,0,1-18.632,21.479c-.56.231-1.119.445-1.7.658-.56.2-1.1.411-1.646.609-5.7-13.974-10.369-36.194-10.369-36.194l27.438,3.637Z" transform="translate(-469.879 -1097.615)" fill="#be443d"/>
            <path id="Path_4380" data-name="Path 4380" d="M710,1110.065s24.1-25.762,31.684-23.866c3.292.823-6.584,11.11-6.584,11.11s9.419.181,24.517-7.614a3.182,3.182,0,0,1,4.4,1.59h0a3.177,3.177,0,0,1-.462,3.222c-3.2,3.961-12.721,14.618-25.986,19.261l-5.629,7.275-14.122,6.715Z" transform="translate(-517.425 -1076.067)" fill="#d28572"/>
            <path id="Path_4381" data-name="Path 4381" d="M684.4,1127.594l-31.52,56.193a22.086,22.086,0,0,1-35.98,3.637l-46.07-53.246,29.2-28.9L632,1149.123l30.45-32.508Z" transform="translate(-469.879 -1082.618)" fill="#fe5b52"/>
            <path id="Path_4382" data-name="Path 4382" d="M648.216,1157.41c-18.489-28.865-43.042-63.032-56.216-74.3l1.07-1.251c15.2,13,42.687,53.046,56.532,74.661Z" transform="translate(-477.113 -1074.62)" fill="#1b1b43"/>
            <path id="Path_4383" data-name="Path 4383" d="M634.091,1208.006a21.89,21.89,0,0,1-10.4-2.839c-10.084-5.447-52.057-56.909-53.839-59.1l1.276-1.039c.435.533,43.546,53.394,53.345,58.687,11.148,6.021,18.712.547,22.229-3.25,5.6-6.052,36.329-61.343,36.638-61.9l1.439.8c-1.269,2.285-31.132,56.023-36.87,62.221A18.587,18.587,0,0,1,634.091,1208.006Z" transform="translate(-469.548 -1093.992)" fill="#1b1b43"/>
          </g>
          <g id="Group_1901" data-name="Group 1901" transform="translate(0 198.642)">
            <path id="Path_4384" data-name="Path 4384" d="M574.021,1580.748l-28.385,55.973,6.2.877,10.291-14.612,32.262,22.776,18.916-.079s3.838-3.809-5.987-14.02c-11.552-12.006-18.157-27.749-17.854-44.178l.026-1.416-7.737-7.893Z" transform="translate(-451.537 -1359.232)" fill="#1b1b43"/>
            <path id="Path_4385" data-name="Path 4385" d="M587.3,1600.553l-6.262,47.425H587.3l8.142-15.91,30.058,15.3h23.8s3.267-4.309-7.893-13.042c-13.121-10.267-21.869-24.929-23.871-41.238l-.173-1.406-8.767-6.731Z" transform="translate(-463.632 -1361.546)" fill="#393a8f"/>
            <path id="Path_4386" data-name="Path 4386" d="M634.979,1510.947l44.055-154.914a26.69,26.69,0,0,0-14.1-31.354L625.257,1305.6l-2.364,183.919Z" transform="translate(-477.93 -1266.113)" fill="#6146cf"/>
            <path id="Path_4387" data-name="Path 4387" d="M412.447,1245.625l-8.875,42.251a39.7,39.7,0,0,0,38.855,47.864h83.041c-8.307,40.6-2.909,96.437,0,153.9l34.29.823,23.654-147.681a52.756,52.756,0,0,0-33.376-57.669L486.1,1260.85Z" transform="translate(-402.71 -1245.625)" fill="#6e54d7"/>
            <path id="Path_4388" data-name="Path 4388" d="M577.086,1495.611l-1.633-.212c.181-1.392,18.032-139.519,13.176-164.882-5.019-26.206-55.54-33.771-82.682-37.835-2.416-.361-4.638-.695-6.618-1.01-6.8-1.082-11.636-4.017-14.376-8.724-5.4-9.284-.732-22.016-.531-22.553l1.541.577c-.046.125-4.6,12.549.415,21.153,2.48,4.256,6.924,6.922,13.209,7.922,1.975.314,4.193.646,6.6,1.007,27.545,4.125,78.817,11.8,84.054,39.154,2.063,10.773.474,41.888-4.722,92.48C581.658,1460.325,577.131,1495.262,577.086,1495.611Z" transform="translate(-429.919 -1250.671)" fill="#fff" opacity="0.4"/>
            <path id="Path_4517" data-name="Path 4517" d="M162,285.991" fill="none" stroke="#707070" stroke-width="1"/>
          </g>
        </g>
        <g id="Group_1904" data-name="Group 1904" transform="translate(0 169.735)">
          <g id="Group_1903" data-name="Group 1903" transform="translate(47.935 125.705)">
            <path id="Path_4389" data-name="Path 4389" d="M423.176,1392.65l-5.679,32.82-27.174,157.072H378.9l27.174-157.072,5.679-32.82Z" transform="translate(-378.9 -1392.65)" fill="#b0b0d2"/>
            <path id="Path_4390" data-name="Path 4390" d="M538.176,1582.542H526.753L499.579,1425.47l-5.678-32.82h11.423L511,1425.47Z" transform="translate(-418.187 -1392.65)" fill="#b0b0d2"/>
            <path id="Path_4391" data-name="Path 4391" d="M437.276,1392.65l-5.679,32.82H420.175l5.678-32.82Z" transform="translate(-393.001 -1392.65)" fill="#1b1b43" opacity="0.3"/>
            <path id="Path_4392" data-name="Path 4392" d="M511,1425.47H499.579l-5.678-32.82h11.423Z" transform="translate(-418.187 -1392.65)" fill="#1b1b43" opacity="0.3"/>
          </g>
          <path id="Path_4393" data-name="Path 4393" d="M491.188,1398.136H384.3V1382.5H491.188a7.818,7.818,0,0,1,7.818,7.818h0A7.819,7.819,0,0,1,491.188,1398.136Z" transform="translate(-332.808 -1263.477)" fill="#cbcbff"/>
          <path id="Path_4394" data-name="Path 4394" d="M372.667,1336.377H357.579l-50.962-124.922a7.065,7.065,0,0,1,3.53-9.061h0a7.065,7.065,0,0,1,9.556,3.73Z" transform="translate(-306.092 -1201.718)" fill="#cbcbff"/>
        </g>
      </g>
      <g id="Group_1913" data-name="Group 1913" transform="translate(1507.043 9450.332)">
        <g id="Group_1909" data-name="Group 1909">
          <g id="Group_1906" data-name="Group 1906" transform="translate(167.163)">
            <path id="Path_4395" data-name="Path 4395" d="M1457.813,996.588c-.387.2-10.96,14.935-6.568,16.5a30.574,30.574,0,0,0,10.036,1.286Z" transform="translate(-1442.146 -963.358)" fill="#d28572"/>
            <path id="Path_4396" data-name="Path 4396" d="M1524.6,1053.611l-35.213,4.169.652-17.85.664-17.769.562-15.192L1501.2,1003l15.534,18.63Z" transform="translate(-1455.542 -965.549)" fill="#ffbc96"/>
            <path id="Path_4397" data-name="Path 4397" d="M1505.685,1032.362s-4.692,8.116-15.3,17.509l.664-17.77Z" transform="translate(-1455.881 -975.49)" fill="#d28572"/>
            <path id="Path_4398" data-name="Path 4398" d="M1457.678,974.064l2.447,37.894a8.633,8.633,0,0,0,5.135,7.345h0a8.633,8.633,0,0,0,6.5.186l23.777-8.883,4.081-21.126-18.031-20.624Z" transform="translate(-1444.708 -953.885)" fill="#ffbc96"/>
            <path id="Path_4399" data-name="Path 4399" d="M1478.467,981.7s-5.84-11.337-11.921-13.071c0,0-23.412,7.629-28.568-10.326,0,0,13.191.125,24.5-7.789s23.1-4.116,31.267,3.271c0,0,26.679,1.316,5.644,48.387,0,0-5.286,1.754-18.749-17.05Z" transform="translate(-1437.978 -946.116)" fill="#1b1b43"/>
            <path id="Path_4400" data-name="Path 4400" d="M1502.772,1000.113c-2.365,4.145-6.839,6.046-9.991,4.247s-3.79-6.618-1.424-10.763,6.839-6.046,9.991-4.246S1505.138,995.969,1502.772,1000.113Z" transform="translate(-1455.725 -960.654)" fill="#ffbc96"/>
            <ellipse id="Ellipse_74" data-name="Ellipse 74" cx="6.481" cy="6.584" rx="6.481" ry="6.584" transform="translate(20.26 35.888)" fill="#fe5b52" opacity="0.4"/>
            <path id="Path_4401" data-name="Path 4401" d="M1497.788,1001.448c-.321-2.133.268-6.51,4.805-7.806l.452,1.583c-4.3,1.227-3.659,5.785-3.63,5.978Z" transform="translate(-1458.386 -962.352)" fill="#1b1b43"/>
          </g>
          <path id="Path_4402" data-name="Path 4402" d="M1489.392,1072.554l.4-18.349,31-7.955,9.053,22.769Z" transform="translate(-1288.379 -980.324)" fill="#fff"/>
          <path id="Path_4403" data-name="Path 4403" d="M1443.039,1075c-15.56,15.143-26.884,37.857-41.149,60.9,0,0-48.35,12.482-62.2,26.335l24.9,12.619,85.041-23.592Z" transform="translate(-1237.236 -990.146)" fill="#a393e3"/>
          <g id="Group_1907" data-name="Group 1907" transform="translate(0 196.225)">
            <path id="Path_4404" data-name="Path 4404" d="M1264.156,1590.814l-19.395,55.068-60.685-15.141s9.441-12.912,37.919-9.2l15.142-42.559Z" transform="translate(-1184.076 -1358.543)" fill="#1b3656"/>
            <path id="Path_4405" data-name="Path 4405" d="M1404.594,1266.25l-87.647,28.485a63.1,63.1,0,0,0-41.641,44.423l-35.307,146,47.732,12.345c18.711-44.356,36.886-97.288,49.379-148.683Z" transform="translate(-1203.181 -1251.706)" fill="#6146cf"/>
            <path id="Path_4406" data-name="Path 4406" d="M1410.921,1603.286l7.132,51.024h-66.386s6.035-14.813,34.565-18.105l-1.646-30.724Z" transform="translate(-1241.329 -1366.845)" fill="#1b3656"/>
            <path id="Path_4407" data-name="Path 4407" d="M1521.628,1244.159l8.875,42.25c5.182,24.673-13.332,49.241-38.543,49.241h-79.828c4.485,41.017,8.806,95.06,5.9,152.519l-43.714.823-23.654-147.681a52.756,52.756,0,0,1,33.376-57.669l58.132-24.94Z" transform="translate(-1240.757 -1244.159)" fill="#6e54d7"/>
          </g>
          <path id="Path_4408" data-name="Path 4408" d="M1568.347,1197.237c-7.187-68.675-17.474-133.476-69.2-130.495a12.575,12.575,0,0,0-8.122,3.724h0a42.962,42.962,0,0,0-12.448,33.794l7.476,93.8S1526.376,1205.467,1568.347,1197.237Z" transform="translate(-1284.637 -987.291)" fill="#a393e3"/>
          <g id="Group_1908" data-name="Group 1908" transform="translate(67.063 94.525)">
            <path id="Path_4409" data-name="Path 4409" d="M1321.325,1206.563s-30.45,5.761-35.388,23.043h43.206l8.23-5.761Z" transform="translate(-1285.937 -1129.615)" fill="#ffbc96"/>
            <path id="Path_4410" data-name="Path 4410" d="M1452.023,1089.688,1412.52,1151l-72.833,15.636,7.818,23.043,61.066-.313c16.4-.32,30.427-8.892,39.542-22.525l33.947-48.761Z" transform="translate(-1304.299 -1089.688)" fill="#a393e3"/>
          </g>
          <path id="Path_4411" data-name="Path 4411" d="M1339.771,1161.734l-.346-1.609,72.384-15.54c1.928-5.442,3.844-11.079,5.7-16.535,7.6-22.379,14.787-43.517,23.695-55.064l1.3,1.006c-8.739,11.33-15.88,32.342-23.438,54.588-1.9,5.605-3.875,11.4-5.859,16.988l-.153.434-.449.1Z" transform="translate(-1237.147 -989.457)" fill="#5254cf"/>
          <path id="Path_4412" data-name="Path 4412" d="M1387.389,1214.68c-16.937,0-34.523-.3-35.848-.321l.028-1.646c.593.01,59.446,1.009,66.673-.6l.222-.049a54.862,54.862,0,0,0,38.771-32.7l8.158-19.843,1.522.627-8.157,19.842a56.51,56.51,0,0,1-39.935,33.68l-.22.049C1415.227,1214.472,1401.533,1214.68,1387.389,1214.68Z" transform="translate(-1241.286 -1019.021)" fill="#5254cf"/>
        </g>
        <g id="Group_1912" data-name="Group 1912" transform="translate(189.895 168.283)">
          <g id="Group_1911" data-name="Group 1911" transform="translate(0 125.701)">
            <path id="Path_4413" data-name="Path 4413" d="M1620.359,1582.535h11.426l-32.854-189.891H1587.5Z" transform="translate(-1511.791 -1392.644)" fill="#b0b0d2"/>
            <path id="Path_4414" data-name="Path 4414" d="M1483.93,1582.535H1472.5l32.854-189.891h11.426Z" transform="translate(-1472.504 -1392.644)" fill="#b0b0d2"/>
            <g id="Group_1910" data-name="Group 1910" transform="translate(27.158)">
              <path id="Path_4415" data-name="Path 4415" d="M1530.856,1392.644l-5.678,32.82h-11.423l5.679-32.82Z" transform="translate(-1513.754 -1392.644)" fill="#1b1b43" opacity="0.3"/>
              <path id="Path_4416" data-name="Path 4416" d="M1604.581,1425.464h-11.423l-5.679-32.82H1598.9Z" transform="translate(-1538.941 -1392.644)" fill="#1b1b43" opacity="0.3"/>
            </g>
          </g>
          <path id="Path_4417" data-name="Path 4417" d="M1482.946,1398.136h106.893V1382.5H1482.946a7.818,7.818,0,0,0-7.818,7.818h0A7.818,7.818,0,0,0,1482.946,1398.136Z" transform="translate(-1473.401 -1263.477)" fill="#cbcbff"/>
          <path id="Path_4418" data-name="Path 4418" d="M1626.445,1336.377h15.087l50.962-124.922a7.065,7.065,0,0,0-3.53-9.061h0a7.066,7.066,0,0,0-9.557,3.73Z" transform="translate(-1525.094 -1201.718)" fill="#cbcbff"/>
        </g>
      </g>
    </g>
    <g id="Group_11582" data-name="Group 11582">
      <g id="Group_1922" data-name="Group 1922" transform="translate(1625.516 9087.211) rotate(90)">
        <g id="Group_1888-2" data-name="Group 1888">
          <rect id="Rectangle_411-2" data-name="Rectangle 411" width="138.567" height="150.039" rx="15.512" transform="translate(0.791 0.79)" fill="#fff"/>
          <g id="Path_4366-2" data-name="Path 4366" transform="translate(-1277.238 -769.26)" fill="#5254cf">
            <path d="M 1406.3828125 921.379638671875 L 1288.241577148438 921.379638671875 C 1281.898559570313 921.379638671875 1276.738037109375 916.219482421875 1276.738037109375 909.8768310546875 L 1276.738037109375 780.2628173828125 C 1276.738037109375 773.920166015625 1281.898559570313 768.760009765625 1288.241577148438 768.760009765625 L 1406.3828125 768.760009765625 C 1412.725341796875 768.760009765625 1417.885375976563 773.920166015625 1417.885375976563 780.2628173828125 L 1417.885375976563 909.8768310546875 C 1417.885375976563 916.219482421875 1412.725341796875 921.379638671875 1406.3828125 921.379638671875 Z M 1288.241577148438 771.3401489257813 C 1283.321533203125 771.3401489257813 1279.31884765625 775.3428344726563 1279.31884765625 780.2628173828125 L 1279.31884765625 909.8768310546875 C 1279.31884765625 914.7967529296875 1283.321533203125 918.7994384765625 1288.241577148438 918.7994384765625 L 1406.3828125 918.7994384765625 C 1411.302734375 918.7994384765625 1415.305419921875 914.7967529296875 1415.305419921875 909.8768310546875 L 1415.305419921875 780.2628173828125 C 1415.305419921875 775.3428344726563 1411.302734375 771.3401489257813 1406.3828125 771.3401489257813 L 1288.241577148438 771.3401489257813 Z" stroke="none"/>
            <path d="M 1406.3828125 920.879638671875 C 1412.44970703125 920.879638671875 1417.385375976563 915.9437866210938 1417.385375976563 909.8768310546875 L 1417.385375976563 780.2628173828125 C 1417.385375976563 774.1958618164063 1412.44970703125 769.260009765625 1406.3828125 769.260009765625 L 1288.241577148438 769.260009765625 C 1282.174682617188 769.260009765625 1277.238037109375 774.1958618164063 1277.238037109375 780.2628173828125 L 1277.238037109375 909.8768310546875 C 1277.238037109375 915.9437866210938 1282.174682617188 920.879638671875 1288.241577148438 920.879638671875 L 1406.3828125 920.879638671875 M 1288.241577148438 770.8401489257813 L 1406.3828125 770.8401489257813 C 1411.578491210938 770.8401489257813 1415.805419921875 775.0669555664063 1415.805419921875 780.2628173828125 L 1415.805419921875 909.8768310546875 C 1415.805419921875 915.0726928710938 1411.578491210938 919.2994384765625 1406.3828125 919.2994384765625 L 1288.241577148438 919.2994384765625 C 1283.045532226563 919.2994384765625 1278.81884765625 915.0726928710938 1278.81884765625 909.8768310546875 L 1278.81884765625 780.2628173828125 C 1278.81884765625 775.0669555664063 1283.045532226563 770.8401489257813 1288.241577148438 770.8401489257813 M 1406.3828125 921.879638671875 L 1288.241577148438 921.879638671875 C 1281.622802734375 921.879638671875 1276.238037109375 916.4951782226563 1276.238037109375 909.8768310546875 L 1276.238037109375 780.2628173828125 C 1276.238037109375 773.6444702148438 1281.622802734375 768.260009765625 1288.241577148438 768.260009765625 L 1406.3828125 768.260009765625 C 1413.001098632813 768.260009765625 1418.385375976563 773.6444702148438 1418.385375976563 780.2628173828125 L 1418.385375976563 909.8768310546875 C 1418.385375976563 916.4951782226563 1413.001098632813 921.879638671875 1406.3828125 921.879638671875 Z M 1288.241577148438 771.8401489257813 C 1283.597290039063 771.8401489257813 1279.81884765625 775.6185302734375 1279.81884765625 780.2628173828125 L 1279.81884765625 909.8768310546875 C 1279.81884765625 914.5210571289063 1283.597290039063 918.2994384765625 1288.241577148438 918.2994384765625 L 1406.3828125 918.2994384765625 C 1411.027099609375 918.2994384765625 1414.805419921875 914.5210571289063 1414.805419921875 909.8768310546875 L 1414.805419921875 780.2628173828125 C 1414.805419921875 775.6185302734375 1411.027099609375 771.8401489257813 1406.3828125 771.8401489257813 L 1288.241577148438 771.8401489257813 Z" stroke="none" fill="#5254cf"/>
          </g>
        </g>
      </g>
      <g id="Group_1917" data-name="Group 1917" transform="translate(1497.896 9109.211)">
        <path id="Path_4455" data-name="Path 4455" d="M177.57,61.133H98.111a1.458,1.458,0,0,1-1.336-2.05,47.742,47.742,0,0,0,0-38.65,1.454,1.454,0,0,1,1.336-2.05H173.76a1.46,1.46,0,1,1,0,2.921H100.306a50.693,50.693,0,0,1,0,36.908H177.57a18.474,18.474,0,0,0,18.454-18.454,1.46,1.46,0,1,1,2.921,0A21.4,21.4,0,0,1,177.57,61.133Z" transform="translate(-95.95 34.258)" fill="#5254cf" stroke="#5254cf" stroke-width="1"/>
        <path id="Path_4456" data-name="Path 4456" d="M172.1,22.251H98.436a1.463,1.463,0,0,1,0-2.927H172.1a1.463,1.463,0,1,1,0,2.927Z" transform="translate(-94.291 39.001)" fill="#5254cf" stroke="#5254cf" stroke-width="1"/>
        <path id="Path_4457" data-name="Path 4457" d="M175.715,38.831H98.475a1.463,1.463,0,0,1,0-2.927h77.239A12.779,12.779,0,0,0,188.479,23.14a1.463,1.463,0,1,1,2.927,0A15.708,15.708,0,0,1,175.715,38.831Z" transform="translate(-94.094 50.876)" fill="#5254cf" stroke="#5254cf" stroke-width="1"/>
        <path id="Path_4458" data-name="Path 4458" d="M145.082,25.43H101.111a1.46,1.46,0,1,1,0-2.921h43.971a1.46,1.46,0,0,1,0,2.921Z" transform="translate(-80.822 55.075)" fill="#5254cf" stroke="#5254cf" stroke-width="1"/>
        <path id="Path_4459" data-name="Path 4459" d="M146.379,23.767H102.408a1.46,1.46,0,1,1,0-2.921h43.971a1.46,1.46,0,0,1,0,2.921Z" transform="translate(-74.276 46.682)" fill="#5254cf" stroke="#5254cf" stroke-width="1"/>
        <path id="Path_4460" data-name="Path 4460" d="M153.611,46.148H102.1a1.463,1.463,0,0,1-1.457-1.463V31.714a16.943,16.943,0,0,1,12.65-16.4,58.124,58.124,0,0,1,29.132,0,16.943,16.943,0,0,1,12.649,16.4v12.97A1.464,1.464,0,0,1,153.611,46.148Zm-50.048-2.927h48.59V31.714A14.014,14.014,0,0,0,141.687,18.14a55.22,55.22,0,0,0-27.657,0,14.014,14.014,0,0,0-10.467,13.575Z" transform="translate(-75.8 9.384)" fill="#5254cf" stroke="#5254cf" stroke-width="1"/>
        <path id="Path_4461" data-name="Path 4461" d="M174.345,52.24a1.461,1.461,0,0,1-1.457-1.463A14.014,14.014,0,0,0,162.421,37.2a55.22,55.22,0,0,0-27.657,0A14.014,14.014,0,0,0,124.3,50.777a1.46,1.46,0,0,1-.647,1.215,1.477,1.477,0,0,1-1.373.139L97.439,41.9a1.466,1.466,0,0,1-.181-2.618l50.6-29.4a1.452,1.452,0,0,1,1.469,0l50.6,29.4a1.463,1.463,0,0,1-.175,2.618L174.9,52.131A1.448,1.448,0,0,1,174.345,52.24ZM148.593,32.51a57.933,57.933,0,0,1,14.566,1.862,16.935,16.935,0,0,1,12.516,14.276l20.22-8.326-47.3-27.494-47.3,27.494,20.22,8.326a16.935,16.935,0,0,1,12.516-14.276A57.933,57.933,0,0,1,148.593,32.51Z" transform="translate(-96.534 -9.678)" fill="#5254cf" stroke="#5254cf" stroke-width="1"/>
        <path id="Path_4462" data-name="Path 4462" d="M112.889,28.269a1.459,1.459,0,0,1-1.457-1.463V16.756a1.46,1.46,0,0,1,2.921,0V26.806A1.461,1.461,0,0,1,112.889,28.269Z" transform="translate(-21.353 18.689)" fill="#5254cf" stroke="#5254cf" stroke-width="1"/>
        <path id="Path_4463" data-name="Path 4463" d="M122.946,39.974H111.983a1.459,1.459,0,0,1-1.457-1.463V23.9a6.938,6.938,0,1,1,13.877,0V38.511A1.459,1.459,0,0,1,122.946,39.974Zm-9.5-2.927h8.036V23.9a4.018,4.018,0,1,0-8.036,0Z" transform="translate(-25.925 27.076)" fill="#5254cf" stroke="#5254cf" stroke-width="1"/>
        <path id="Path_4464" data-name="Path 4464" d="M122.946,21.194H111.983a1.463,1.463,0,0,1,0-2.927h10.963a1.463,1.463,0,0,1,0,2.927Z" transform="translate(-25.925 33.667)" fill="#5254cf" stroke="#5254cf" stroke-width="1"/>
        <path id="Path_4465" data-name="Path 4465" d="M136.481,19.748H103.72a1.46,1.46,0,1,1,0-2.921h32.76a1.46,1.46,0,0,1,0,2.921Z" transform="translate(-67.655 26.4)" fill="#5254cf" stroke="#5254cf" stroke-width="1"/>
      </g>
    </g>
    <g id="Group_11587" data-name="Group 11587">
      <g id="Group_1891" data-name="Group 1891" transform="translate(1568 9280.211)">
        <g id="Group_1888-3" data-name="Group 1888">
          <rect id="Rectangle_411-3" data-name="Rectangle 411" width="138.567" height="150.039" rx="15.512" transform="translate(0.791 0.79)" fill="#fff"/>
          <g id="Path_4366-3" data-name="Path 4366" transform="translate(-1277.238 -769.26)" fill="#c0f">
            <path d="M 1406.3828125 921.379638671875 L 1288.241577148438 921.379638671875 C 1281.898559570313 921.379638671875 1276.738037109375 916.219482421875 1276.738037109375 909.8768310546875 L 1276.738037109375 780.2628173828125 C 1276.738037109375 773.920166015625 1281.898559570313 768.760009765625 1288.241577148438 768.760009765625 L 1406.3828125 768.760009765625 C 1412.725341796875 768.760009765625 1417.885375976563 773.920166015625 1417.885375976563 780.2628173828125 L 1417.885375976563 909.8768310546875 C 1417.885375976563 916.219482421875 1412.725341796875 921.379638671875 1406.3828125 921.379638671875 Z M 1288.241577148438 771.3401489257813 C 1283.321533203125 771.3401489257813 1279.31884765625 775.3428344726563 1279.31884765625 780.2628173828125 L 1279.31884765625 909.8768310546875 C 1279.31884765625 914.7967529296875 1283.321533203125 918.7994384765625 1288.241577148438 918.7994384765625 L 1406.3828125 918.7994384765625 C 1411.302734375 918.7994384765625 1415.305419921875 914.7967529296875 1415.305419921875 909.8768310546875 L 1415.305419921875 780.2628173828125 C 1415.305419921875 775.3428344726563 1411.302734375 771.3401489257813 1406.3828125 771.3401489257813 L 1288.241577148438 771.3401489257813 Z" stroke="none"/>
            <path d="M 1406.3828125 920.879638671875 C 1412.44970703125 920.879638671875 1417.385375976563 915.9437866210938 1417.385375976563 909.8768310546875 L 1417.385375976563 780.2628173828125 C 1417.385375976563 774.1958618164063 1412.44970703125 769.260009765625 1406.3828125 769.260009765625 L 1288.241577148438 769.260009765625 C 1282.174682617188 769.260009765625 1277.238037109375 774.1958618164063 1277.238037109375 780.2628173828125 L 1277.238037109375 909.8768310546875 C 1277.238037109375 915.9437866210938 1282.174682617188 920.879638671875 1288.241577148438 920.879638671875 L 1406.3828125 920.879638671875 M 1288.241577148438 770.8401489257813 L 1406.3828125 770.8401489257813 C 1411.578491210938 770.8401489257813 1415.805419921875 775.0669555664063 1415.805419921875 780.2628173828125 L 1415.805419921875 909.8768310546875 C 1415.805419921875 915.0726928710938 1411.578491210938 919.2994384765625 1406.3828125 919.2994384765625 L 1288.241577148438 919.2994384765625 C 1283.045532226563 919.2994384765625 1278.81884765625 915.0726928710938 1278.81884765625 909.8768310546875 L 1278.81884765625 780.2628173828125 C 1278.81884765625 775.0669555664063 1283.045532226563 770.8401489257813 1288.241577148438 770.8401489257813 M 1406.3828125 921.879638671875 L 1288.241577148438 921.879638671875 C 1281.622802734375 921.879638671875 1276.238037109375 916.4951782226563 1276.238037109375 909.8768310546875 L 1276.238037109375 780.2628173828125 C 1276.238037109375 773.6444702148438 1281.622802734375 768.260009765625 1288.241577148438 768.260009765625 L 1406.3828125 768.260009765625 C 1413.001098632813 768.260009765625 1418.385375976563 773.6444702148438 1418.385375976563 780.2628173828125 L 1418.385375976563 909.8768310546875 C 1418.385375976563 916.4951782226563 1413.001098632813 921.879638671875 1406.3828125 921.879638671875 Z M 1288.241577148438 771.8401489257813 C 1283.597290039063 771.8401489257813 1279.81884765625 775.6185302734375 1279.81884765625 780.2628173828125 L 1279.81884765625 909.8768310546875 C 1279.81884765625 914.5210571289063 1283.597290039063 918.2994384765625 1288.241577148438 918.2994384765625 L 1406.3828125 918.2994384765625 C 1411.027099609375 918.2994384765625 1414.805419921875 914.5210571289063 1414.805419921875 909.8768310546875 L 1414.805419921875 780.2628173828125 C 1414.805419921875 775.6185302734375 1411.027099609375 771.8401489257813 1406.3828125 771.8401489257813 L 1288.241577148438 771.8401489257813 Z" stroke="none" fill="#c0f"/>
          </g>
        </g>
      </g>
      <g id="Group_1920" data-name="Group 1920" transform="translate(1601 9310.211)">
        <path id="Path_4483" data-name="Path 4483" d="M224.23,103.166h-20.6a1.19,1.19,0,0,1-1.189-1.189V99.245a14.028,14.028,0,0,0-5.095-10.691,25.72,25.72,0,1,1,33.13.029,13.936,13.936,0,0,0-5.061,10.657v2.737A1.189,1.189,0,0,1,224.23,103.166Zm-19.417-2.378H223.04V99.24a16.319,16.319,0,0,1,5.906-12.475,23.349,23.349,0,1,0-30.069-.025,16.389,16.389,0,0,1,5.935,12.5Z" transform="translate(-176.504 -30.985)" fill="#c0f" stroke="#ca00fd" stroke-width="1"/>
        <path id="Path_4484" data-name="Path 4484" d="M217.9,63.486H194.477a4.289,4.289,0,1,1,0-8.579H217.9a4.289,4.289,0,1,1,0,8.579Zm-23.426-6.2a1.911,1.911,0,1,0,0,3.822H217.9a1.911,1.911,0,1,0,0-3.822Z" transform="translate(-168.768 14.895)" fill="#c0f" stroke="#ca00fd" stroke-width="1"/>
        <path id="Path_4485" data-name="Path 4485" d="M217.9,66.006H194.477a4.287,4.287,0,1,1,0-8.574H217.9a4.287,4.287,0,1,1,0,8.574Zm-23.426-6.2a1.914,1.914,0,1,0,0,3.827H217.9a1.914,1.914,0,1,0,0-3.827Z" transform="translate(-168.768 24.776)" fill="#c0f" stroke="#ca00fd" stroke-width="1"/>
        <path id="Path_4486" data-name="Path 4486" d="M212.712,64.748h-20.4a1.186,1.186,0,0,1-1.184-1.189v-6.2a1.189,1.189,0,0,1,1.184-1.189h20.4a1.189,1.189,0,0,1,1.184,1.189v6.2A1.186,1.186,0,0,1,212.712,64.748ZM193.5,62.374h18.022V58.547H193.5Z" transform="translate(-165.089 19.834)" fill="#c0f" stroke="#ca00fd" stroke-width="1"/>
        <path id="Path_4487" data-name="Path 4487" d="M241.152,61.067H188.973a1.187,1.187,0,1,1,0-2.373h52.179a1.187,1.187,0,0,1,0,2.373Z" transform="translate(-178.175 29.715)" fill="#c0f" stroke="#ca00fd" stroke-width="1"/>
        <path id="Path_4488" data-name="Path 4488" d="M205.221,82.589a1.229,1.229,0,0,1-1.169-1.39l4.992-29.032-2.093,1.415a1.183,1.183,0,0,1-1.3.015l-4.034-2.56-4.034,2.56a1.174,1.174,0,0,1-1.3-.015l-2.1-1.415L199.178,81.2a1.187,1.187,0,1,1-2.339.4l-5.464-31.774a1.185,1.185,0,0,1,1.833-1.184l3.759,2.535,4.009-2.55a1.179,1.179,0,0,1,1.277,0l4.014,2.55,3.754-2.535a1.188,1.188,0,0,1,1.838,1.184L206.391,81.6A1.185,1.185,0,0,1,205.221,82.589Z" transform="translate(-164.192 -10.409)" fill="#c0f" stroke="#ca00fd" stroke-width="1"/>
        <path id="Path_4489" data-name="Path 4489" d="M194.392,48.64a1.193,1.193,0,0,1-1.189-1.189V41.889a1.189,1.189,0,1,1,2.378,0v5.562A1.19,1.19,0,0,1,194.392,48.64Z" transform="translate(-156.969 -40.7)" fill="#c0f" stroke="#ca00fd" stroke-width="1"/>
        <path id="Path_4490" data-name="Path 4490" d="M197.075,48.816a1.212,1.212,0,0,1-.5-.108,1.188,1.188,0,0,1-.57-1.582l2.349-5.041a1.188,1.188,0,0,1,2.152,1.007l-2.348,5.041A1.19,1.19,0,0,1,197.075,48.816Z" transform="translate(-146.455 -37.953)" fill="#c0f" stroke="#ca00fd" stroke-width="1"/>
        <path id="Path_4491" data-name="Path 4491" d="M199.262,49.324a1.186,1.186,0,0,1-.766-2.093l4.265-3.577a1.186,1.186,0,0,1,1.523,1.818l-4.26,3.577A1.172,1.172,0,0,1,199.262,49.324Z" transform="translate(-137.912 -30.231)" fill="#c0f" stroke="#ca00fd" stroke-width="1"/>
        <path id="Path_4492" data-name="Path 4492" d="M200.53,50.065a1.187,1.187,0,0,1-.3-2.334l5.37-1.44a1.188,1.188,0,0,1,.614,2.294l-5.37,1.44A1.115,1.115,0,0,1,200.53,50.065Z" transform="translate(-132.94 -18.979)" fill="#c0f" stroke="#ca00fd" stroke-width="1"/>
        <path id="Path_4493" data-name="Path 4493" d="M206.134,52.633c-.211-.02-5.69-.983-5.69-.983a1.187,1.187,0,0,1,.413-2.339l5.478.963a1.188,1.188,0,0,1-.2,2.358Z" transform="translate(-132.471 -7.072)" fill="#c0f" stroke="#ca00fd" stroke-width="1"/>
        <path id="Path_4494" data-name="Path 4494" d="M204.151,57.4a1.169,1.169,0,0,1-.678-.216l-4.555-3.189a1.187,1.187,0,1,1,1.361-1.946l4.555,3.189a1.187,1.187,0,0,1-.683,2.162Z" transform="translate(-136.591 2.876)" fill="#c0f" stroke="#ca00fd" stroke-width="1"/>
        <path id="Path_4495" data-name="Path 4495" d="M193.579,48.816a1.183,1.183,0,0,1-1.076-.683l-2.353-5.041a1.188,1.188,0,0,1,2.152-1.007l2.353,5.041a1.2,1.2,0,0,1-.575,1.582A1.212,1.212,0,0,1,193.579,48.816Z" transform="translate(-169.353 -37.953)" fill="#c0f" stroke="#ca00fd" stroke-width="1"/>
        <path id="Path_4496" data-name="Path 4496" d="M192.913,49.324a1.181,1.181,0,0,1-.761-.275l-4.26-3.577a1.186,1.186,0,1,1,1.523-1.818l4.265,3.577a1.184,1.184,0,0,1-.766,2.093Z" transform="translate(-179.418 -30.231)" fill="#c0f" stroke="#ca00fd" stroke-width="1"/>
        <path id="Path_4497" data-name="Path 4497" d="M192.531,50.065a1.115,1.115,0,0,1-.309-.039l-5.37-1.44a1.188,1.188,0,1,1,.614-2.294l5.37,1.44a1.187,1.187,0,0,1-.3,2.334Z" transform="translate(-185.276 -18.979)" fill="#c0f" stroke="#ca00fd" stroke-width="1"/>
        <path id="Path_4498" data-name="Path 4498" d="M187.016,52.634a1.188,1.188,0,0,1-.206-2.358l5.478-.963a1.181,1.181,0,0,1,1.376.963,1.193,1.193,0,0,1-.963,1.376l-5.478.963A.978.978,0,0,1,187.016,52.634Z" transform="translate(-185.828 -7.073)" fill="#c0f" stroke="#ca00fd" stroke-width="1"/>
        <path id="Path_4499" data-name="Path 4499" d="M188.258,57.4a1.189,1.189,0,0,1-.683-2.162l4.555-3.189a1.189,1.189,0,1,1,1.366,1.946l-4.559,3.189A1.158,1.158,0,0,1,188.258,57.4Z" transform="translate(-180.973 2.876)" fill="#c0f" stroke="#ca00fd" stroke-width="1"/>
      </g>
    </g>
  </g>
</svg>
